<svg id="svg-img" version="1.1" xmlns="http://www.w3.org/2000/svg" xmlns:xlink="http://www.w3.org/1999/xlink" x="0px" y="0px" width="200px"
	 height="200px" viewBox="0 0 200 200" enable-background="new 0 0 200 200" xml:space="preserve">
<g id="heart">
</g>
<g>
		<rect class="heart1" x="117.284" y="87.961" width="24.071" height="24.078"/>
		<rect class="heart1" x="87.961" y="58.644" width="24.078" height="24.072"/>
		<rect class="heart5" x="117.284" y="117.284" width="24.071" height="24.076"/>
		<rect class="heart4" x="117.284" y="146.605" width="24.071" height="24.075"/>
		<rect class="heart3" x="117.284" y="58.644" width="24.071" height="24.072"/>
		<rect class="heart5" x="58.64" y="117.284" width="24.072" height="24.076"/>
		<rect class="heart5" x="117.284" y="29.319" width="24.071" height="24.08"/>
		<rect class="heart2" x="87.961" y="117.284" width="24.078" height="24.076"/>
		<rect class="heart5" x="87.961" y="87.961" width="24.078" height="24.078"/>
		<rect class="heart1" x="58.64" y="146.605" width="24.072" height="24.075"/>
		<rect class="heart1" x="87.961" y="146.605" width="24.078" height="24.075"/>
		<rect class="heart4" x="29.317" y="117.284" width="24.078" height="24.076"/>
		<rect class="heart5" x="58.64" y="29.319" width="24.072" height="24.08"/>
		<rect class="heart4" x="29.317" y="29.319" width="24.078" height="24.08"/>
		<rect class="heart2" x="87.961" y="29.319" width="24.078" height="24.08"/>
		<rect class="heart5" y="87.961" width="24.071" height="24.078"/>
		<rect class="heart1" x="58.64" y="58.644" width="24.072" height="24.072"/>
		<rect class="heart3" x="29.317" y="58.644" width="24.078" height="24.072"/>
		<rect class="heart2" y="29.319" width="24.071" height="24.08"/>
		<rect class="heart1" y="58.644" width="24.071" height="24.072"/>
		<rect class="heart2" x="29.317" y="87.961" width="24.078" height="24.078"/>
		<rect class="heart4" x="58.64" y="87.961" width="24.072" height="24.078"/>
		<rect class="heart2" x="87.961" y="175.925" width="24.078" height="24.075"/>
		<rect class="heart2" x="58.64" width="24.072" height="24.076"/>
		<rect class="heart1" x="29.317" width="24.078" height="24.076"/>
		<rect class="heart3" x="117.284" width="24.071" height="24.076"/>
		<rect class="heart4" x="146.605" y="87.961" width="24.075" height="24.078"/>
		<rect class="heart5" x="146.605" y="58.644" width="24.075" height="24.072"/>
		<rect class="heart2" x="146.605" width="24.075" height="24.076"/>
		<rect class="heart2" x="146.605" y="117.284" width="24.075" height="24.076"/>
		<rect class="heart2" x="175.927" y="58.644" width="24.073" height="24.072"/>
		<rect class="heart3" x="175.927" y="87.961" width="24.073" height="24.078"/>
		<rect class="heart2" x="175.927" y="29.321" width="24.073" height="24.078"/>
		<rect class="heart4" x="146.605" y="29.319" width="24.075" height="24.08"/>
</g>
</svg>
