<?xml version="1.0" encoding="utf-8"?>
<!-- Generator: Adobe Illustrator 16.0.0, SVG Export Plug-In . SVG Version: 6.00 Build 0)  -->
<!DOCTYPE svg PUBLIC "-//W3C//DTD SVG 1.1//EN" "http://www.w3.org/Graphics/SVG/1.1/DTD/svg11.dtd">
<svg version="1.1" xmlns="http://www.w3.org/2000/svg" xmlns:xlink="http://www.w3.org/1999/xlink" x="0px" y="0px" width="200px"
	 height="200px" viewBox="0 0 200 200" enable-background="new 0 0 200 200" xml:space="preserve">
<g id="bgd">
</g>
<g id="Layer_1">
	<g>
		<rect x="117.284" y="87.961" fill="#F0593E" width="24.071" height="24.078"/>
		<rect x="87.961" y="58.644" fill="#F0593E" width="24.078" height="24.072"/>
		<rect x="117.284" y="117.284" fill="#F4896C" width="24.071" height="24.076"/>
		<rect x="117.284" y="146.605" fill="#F3795B" width="24.071" height="24.075"/>
		<rect x="117.284" y="58.644" fill="#F27758" width="24.071" height="24.072"/>
		<rect x="58.64" y="117.284" fill="#F4896C" width="24.072" height="24.076"/>
		<rect x="117.284" y="29.319" fill="#F4896C" width="24.071" height="24.08"/>
		<rect x="87.961" y="117.284" fill="#EC1E24" width="24.078" height="24.076"/>
		<rect x="87.961" y="87.961" fill="#F4896C" width="24.078" height="24.078"/>
		<rect x="58.64" y="146.605" fill="#F0593E" width="24.072" height="24.075"/>
		<rect x="87.961" y="146.605" fill="#F0593E" width="24.078" height="24.075"/>
		<rect x="29.317" y="117.284" fill="#F3795B" width="24.078" height="24.076"/>
		<rect x="58.64" y="29.319" fill="#F4896C" width="24.072" height="24.08"/>
		<rect x="29.317" y="29.319" fill="#F3795B" width="24.078" height="24.08"/>
		<rect x="87.961" y="29.319" fill="#EC1E24" width="24.078" height="24.08"/>
		<rect y="87.961" fill="#F4896C" width="24.071" height="24.078"/>
		<rect x="58.64" y="58.644" fill="#F0593E" width="24.072" height="24.072"/>
		<rect x="29.317" y="58.644" fill="#F27758" width="24.078" height="24.072"/>
		<rect y="29.319" fill="#EC1E24" width="24.071" height="24.08"/>
		<rect y="58.644" fill="#F0593E" width="24.071" height="24.072"/>
		<rect x="29.317" y="87.961" fill="#EC1E24" width="24.078" height="24.078"/>
		<rect x="58.64" y="87.961" fill="#F3795B" width="24.072" height="24.078"/>
		<rect x="87.961" y="175.925" fill="#EC1E24" width="24.078" height="24.075"/>
		<rect x="58.64" fill="#EC1E24" width="24.072" height="24.076"/>
		<rect x="29.317" fill="#F0593E" width="24.078" height="24.076"/>
		<rect x="117.284" fill="#F27758" width="24.071" height="24.076"/>
		<rect x="146.605" y="87.961" fill="#F3795B" width="24.075" height="24.078"/>
		<rect x="146.605" y="58.644" fill="#F4896C" width="24.075" height="24.072"/>
		<rect x="146.605" y="29.319" fill="#F8B198" width="24.075" height="24.08"/>
		<rect x="146.605" fill="#EC1E24" width="24.075" height="24.076"/>
		<rect x="146.605" y="117.284" fill="#EC1E24" width="24.075" height="24.076"/>
		<rect x="175.927" y="58.644" fill="#EC1E24" width="24.073" height="24.072"/>
		<rect x="175.927" y="87.961" fill="#F27758" width="24.073" height="24.078"/>
		<rect x="175.927" y="29.321" fill="#EC1E24" width="24.073" height="24.078"/>
		<rect x="146.605" y="29.319" fill="#F3795B" width="24.075" height="24.08"/>
	</g>
</g>
</svg>
